# xmcd
# Track frame offsets:
# 150
# 14417
# 28985
# 43655
# 54990
# 71455
# 86580
# 102495
# 117427
# 130770
# 145397
# 160550
# 176550
# 189965
# 205480
# 220955
# 236132
# 250180
#
# Disc length: 3501 seconds
# Revision: 0
# Processed by: cddbd v1.5.1PL0 Copyright (c) Steve Scherf et al.
# Submitted via: VisiTrax 2.9.10.228 - For more info visit www.synapsa.com
#
DISCID=050dab12
DTITLE=Schneider.Rita. - Nutty As A Fruitcake !.
DYEAR=2000
DGENRE=Comedy. Aust.
TTITLE0=Aussie Nicknames.
TTITLE1=I'm Strictly Australian.
TTITLE2=Bootscootin' Beverly From Batemans Bay.
TTITLE3=Hang It In The Henhouse.
TTITLE4=Under A Mundubbera Moon.
TTITLE5=I'm Sport Mad.
TTITLE6=Pore Ol' Koo-Liger.
TTITLE7=On The Internet.
TTITLE8=Farmyard Yodel.
TTITLE9='Ave A Great Big Aussie Laugh.
TTITLE10=It's Me SCD !
TTITLE11=O ! Sydney I Love You.
TTITLE12=Banana Bender From Booroodabin.
TTITLE13=Corporate Jargon.
TTITLE14=Pokie Rap.The.
TTITLE15=Didgeree Rock.
TTITLE16=Edikit Song.The.
TTITLE17=Honk That Honkaphone Tonight.
EXTD=
EXTT0=
EXTT1=
EXTT2=
EXTT3=
EXTT4=
EXTT5=
EXTT6=
EXTT7=
EXTT8=
EXTT9=
EXTT10=
EXTT11=
EXTT12=
EXTT13=
EXTT14=
EXTT15=
EXTT16=
EXTT17=
PLAYORDER=
